<svg xmlns="http://www.w3.org/2000/svg" viewBox="0 0 620 120" fill="none">
  <defs>
    <style>
      .jp {
        font-family: "Hiragino Mincho ProN", "Yu Mincho", serif;
        font-size: 46px;
        fill: #3A4650;
        letter-spacing: 0.02em;
      }
      .en {
        font-family: "Times New Roman", Georgia, serif;
        font-size: 18px;
        fill: #C7911F;
        letter-spacing: 0.18em;
      }
    </style>
  </defs>
  <g transform="translate(6 4)" stroke="#C7911F" stroke-width="4.5" stroke-linecap="round" stroke-linejoin="round" fill="none">
    <path d="M39 12c-8.6 0-15.5 5.9-17.8 15.4-2.8 11.6 2.3 21.6 5 31.2 2.2 7.7 3.7 16.1 5.8 24.5 1 3.8 2.7 10.9 7.8 10.9 4.8 0 7.2-5.8 7.2-15.3 0-11.4 3.1-19.5 11-19.5s11 8.1 11 19.5c0 9.5 2.4 15.3 7.2 15.3 5.1 0 6.8-7.1 7.8-10.9 2.1-8.4 3.6-16.8 5.8-24.5 2.7-9.6 7.8-19.6 5-31.2C104.5 17.9 97.6 12 89 12c-7.4 0-12.7 3-18 9.3C65.7 15 60.4 12 53 12h-14Z"/>
    <path d="M44 55c1.4-7.7 6-13.9 13.2-17 6.8-2.9 15.4-2.7 22.4 1.3 5.7 3.2 10.1 8.8 11.8 15.5"/>
    <path d="M56 58c5.2 2.5 11.3 3.1 16.9 1.4"/>
    <path d="M58 43c2.6 0 4.8.8 6.8 2.3"/>
    <path d="M76.5 61c4-.7 7.7-3.1 10.2-6.6"/>
    <path d="M41 54 27.5 59.5"/>
    <path d="M42.5 59.5 29.5 70.5"/>
    <path d="M43 65 32.5 79"/>
  </g>
  <text class="jp" x="126" y="52">辻堂がじゅまる歯科</text>
  <line x1="126" x2="604" y1="68" y2="68" stroke="#E5D9C0" stroke-width="1.5"/>
  <text class="en" x="126" y="95">TSUJIDO GAJUMARU DENTAL CLINIC</text>
</svg>
